HIERARCHY
ROOT hip
{
  OFFSET 0 0 0
  CHANNELS 6 Xposition Yposition Zposition Zrotation Yrotation Xrotation
  JOINT abdomen
  {
    OFFSET 0 20.6881 -0.73152
    CHANNELS 3 Zrotation Xrotation Yrotation
    JOINT chest
    {
      OFFSET 0 11.7043 -0.48768
      CHANNELS 3 Zrotation Xrotation Yrotation
      JOINT neck
      {
        OFFSET 0 22.1894 -2.19456
        CHANNELS 3 Zrotation Xrotation Yrotation
        JOINT head
        {
          OFFSET -0.24384 7.07133 1.2192
          CHANNELS 3 Zrotation Xrotation Yrotation
          JOINT leftEye
          {
            OFFSET 4.14528 8.04674 8.04672
            CHANNELS 3 Zrotation Xrotation Yrotation
            End Site
            {
              OFFSET 1 0 0
            }
          }
          JOINT rightEye
          {
            OFFSET -3.6576 8.04674 8.04672
            CHANNELS 3 Zrotation Xrotation Yrotation
            End Site
            {
              OFFSET 1 0 0
            }
          }
        }
      }
      JOINT rCollar
      {
        OFFSET -2.68224 19.2634 -4.8768
        CHANNELS 3 Zrotation Xrotation Yrotation
        JOINT rShldr
        {
          OFFSET -8.77824 -1.95073 1.46304
          CHANNELS 3 Zrotation Xrotation Yrotation
          JOINT rForeArm
          {
            OFFSET -28.1742 -1.7115 0.48768
            CHANNELS 3 Zrotation Xrotation Yrotation
            JOINT rHand
            {
              OFFSET -22.5879 0.773209 7.07136
              CHANNELS 3 Zrotation Xrotation Yrotation
              JOINT rThumb1
              {
                OFFSET -1.2192 -0.487915 3.41376
                CHANNELS 3 Zrotation Xrotation Yrotation
                JOINT rThumb2
                {
                  OFFSET -3.37035 -0.52449 3.41376
                  CHANNELS 3 Zrotation Xrotation Yrotation
                  End Site
                  {
                    OFFSET -1.78271 -1.18214 1.43049
                  }
                }
              }
              JOINT rIndex1
              {
                OFFSET -7.75947 0.938293 5.60832
                CHANNELS 3 Zrotation Xrotation Yrotation
                JOINT rIndex2
                {
                  OFFSET -2.54057 -0.884171 1.56538
                  CHANNELS 3 Zrotation Xrotation Yrotation
                  End Site
                  {
                    OFFSET -1.62519 -0.234802 1.16502
                  }
                }
              }
              JOINT rMid1
              {
                OFFSET -8.24714 1.18213 3.41376
                CHANNELS 3 Zrotation Xrotation Yrotation
                JOINT rMid2
                {
                  OFFSET -3.10165 -0.590103 1.0647
                  CHANNELS 3 Zrotation Xrotation Yrotation
                  End Site
                  {
                    OFFSET -2.48547 -0.328903 0.83742
                  }
                }
              }
              JOINT rRing1
              {
                OFFSET -8.82822 0.546677 1.51678
                CHANNELS 3 Zrotation Xrotation Yrotation
                JOINT rRing2
                {
                  OFFSET -2.60934 -0.819778 -0.0198488
                  CHANNELS 3 Zrotation Xrotation Yrotation
                  End Site
                  {
                    OFFSET -2.33842 -0.294052 0.168128
                  }
                }
              }
              JOINT rPinky1
              {
                OFFSET -8.27202 -0.0477905 -0.4584
                CHANNELS 3 Zrotation Xrotation Yrotation
                JOINT rPinky2
                {
                  OFFSET -1.82734 -0.647385 -0.700984
                  CHANNELS 3 Zrotation Xrotation Yrotation
                  End Site
                  {
                    OFFSET -1.69225 -0.51767 -0.607171
                  }
                }
              }
            }
          }
        }
      }
      JOINT lCollar
      {
        OFFSET 2.68224 19.2634 -4.8768
        CHANNELS 3 Zrotation Xrotation Yrotation
        JOINT lShldr
        {
          OFFSET 8.77824 -1.95073 1.46304
          CHANNELS 3 Zrotation Xrotation Yrotation
          JOINT lForeArm
          {
            OFFSET 28.1742 -1.7115 0.48768
            CHANNELS 3 Zrotation Xrotation Yrotation
            JOINT lHand
            {
              OFFSET 22.5879 0.773209 7.07136
              CHANNELS 3 Zrotation Xrotation Yrotation
              JOINT lThumb1
              {
                OFFSET 1.2192 -0.487915 3.41376
                CHANNELS 3 Zrotation Xrotation Yrotation
                JOINT lThumb2
                {
                  OFFSET 3.37035 -0.52449 3.41376
                  CHANNELS 3 Zrotation Xrotation Yrotation
                  End Site
                  {
                    OFFSET 1.78271 -1.18214 1.43049
                  }
                }
              }
              JOINT lIndex1
              {
                OFFSET 7.75947 0.938293 5.60832
                CHANNELS 3 Zrotation Xrotation Yrotation
                JOINT lIndex2
                {
                  OFFSET 2.54057 -0.884171 1.56538
                  CHANNELS 3 Zrotation Xrotation Yrotation
                  End Site
                  {
                    OFFSET 1.62519 -0.234802 1.16502
                  }
                }
              }
              JOINT lMid1
              {
                OFFSET 8.24714 1.18213 3.41376
                CHANNELS 3 Zrotation Xrotation Yrotation
                JOINT lMid2
                {
                  OFFSET 3.10165 -0.590103 1.0647
                  CHANNELS 3 Zrotation Xrotation Yrotation
                  End Site
                  {
                    OFFSET 2.48547 -0.328903 0.83742
                  }
                }
              }
              JOINT lRing1
              {
                OFFSET 8.82822 0.546677 1.51678
                CHANNELS 3 Zrotation Xrotation Yrotation
                JOINT lRing2
                {
                  OFFSET 2.60934 -0.819778 -0.0198488
                  CHANNELS 3 Zrotation Xrotation Yrotation
                  End Site
                  {
                    OFFSET 2.33842 -0.294052 0.168128
                  }
                }
              }
              JOINT lPinky1
              {
                OFFSET 8.27202 -0.0477905 -0.4584
                CHANNELS 3 Zrotation Xrotation Yrotation
                JOINT lPinky2
                {
                  OFFSET 1.82734 -0.647385 -0.700984
                  CHANNELS 3 Zrotation Xrotation Yrotation
                  End Site
                  {
                    OFFSET 1.69225 -0.51767 -0.607171
                  }
                }
              }
            }
          }
        }
      }
    }
  }
  JOINT rButtock
  {
    OFFSET -8.77824 4.35084 1.2192
    CHANNELS 3 Zrotation Xrotation Yrotation
    JOINT rThigh
    {
      OFFSET 0 -1.70687 -2.19456
      CHANNELS 3 Zrotation Xrotation Yrotation
      JOINT rShin
      {
        OFFSET 0 -36.8199 0.73152
        CHANNELS 3 Zrotation Xrotation Yrotation
        JOINT rFoot
        {
          OFFSET 0.73152 -45.1104 -5.12064
          CHANNELS 3 Zrotation Xrotation Yrotation
          End Site
          {
            OFFSET -1.1221 -3.69964 12.103
          }
        }
      }
    }
  }
  JOINT lButtock
  {
    OFFSET 8.77824 4.35084 1.2192
    CHANNELS 3 Zrotation Xrotation Yrotation
    JOINT lThigh
    {
      OFFSET 0 -1.70687 -2.19456
      CHANNELS 3 Zrotation Xrotation Yrotation
      JOINT lShin
      {
        OFFSET 0 -36.8199 0.73152
        CHANNELS 3 Zrotation Xrotation Yrotation
        JOINT lFoot
        {
          OFFSET -0.73152 -45.1104 -5.12064
          CHANNELS 3 Zrotation Xrotation Yrotation
          End Site
          {
            OFFSET 1.1221 -3.69964 12.103
          }
        }
      }
    }
  }
}
MOTION
Frames:	8
Frame Time:	0.00833333
173.132 85.1237 31.6846 0.0 0.0 0.0 0.435976 -0.0238512 0.0128202 0.121276 -0.0396247 0.0210495 2.74122e-15 1.59028e-15 1.49089e-16 8.40021e-15 1.59028e-14 4.73667e-16 -0.0 0.0 0.0 -0.0 0.0 0.0 1.53937e-15 1.14534e-17 1.98785e-16 3.0984e-14 4.03781e-16 2.78299e-15 5.04615e-13 -1.45312e-13 6.04305e-14 5.79968e-12 1.8405e-13 3.02153e-13 1.36741e-11 7.99117e-14 7.85597e-13 2.36148e-11 1.39944e-13 1.3406e-12 1.36808e-11 8.15017e-14 7.76055e-13 7.73091 5.47488 0.417314 1.36741e-11 8.06072e-14 7.76055e-13 2.90554 0.965183 0.102902 1.36853e-11 8.05078e-14 7.76055e-13 10.2786 0.731801 0.0259123 1.36702e-11 8.3092e-14 7.79236e-13 2.22167 -0.733487 -0.20892 1.3431e-15 1.22299e-17 0.0 2.78737e-14 3.97569e-16 7.95139e-16 5.05609e-13 1.60618e-13 1.27222e-14 5.79728e-12 -1.17208e-13 3.4668e-13 1.36764e-11 8.74901e-14 7.66514e-13 2.36244e-11 1.52667e-13 1.33583e-12 1.36716e-11 8.90555e-14 7.76055e-13 -7.73091 5.47488 -0.417314 1.36756e-11 8.7664e-14 7.66514e-13 -2.90554 0.965183 -0.102902 1.36694e-11 8.7664e-14 7.70489e-13 -10.2786 0.731801 -0.0259123 1.36845e-11 8.94531e-14 7.63333e-13 -2.22167 -0.733487 0.20892 -2.03217e-16 0.0 -3.88251e-19 0.651865 -4.71111 -0.0694722 -0.000843237 2.99809 0.0038264 -0.326255 1.72324 0.0697717 2.03217e-16 0.0 3.88251e-19 0.0330252 -2.68024 0.0231627 0.00579581 -0.679771 0.0505494 0.296278 3.37021 -0.0966967
164.734 81.2036 19.2164 -134.337 -81.932 143.487 3.45291 0.36033 0.673342 1.01685 -3.78632 0.297682 -0.00174804 -0.600572 0.261949 -0.989048 7.48919 -0.0485089 -0.0 0.0 0.0 -0.0 0.0 0.0 -2.80539e-14 -5.62258e-13 7.13874e-14 16.9701 13.3722 -1.86205 -5.49283 -2.81516 8.20468 0.019722 -3.11682 -0.435705 6.43456e-10 4.10121e-10 -4.62877e-10 1.11508e-09 7.09119e-10 -7.97533e-10 6.4346e-10 4.10122e-10 -4.62883e-10 7.73091 5.47488 0.417314 6.43455e-10 4.10121e-10 -4.62881e-10 2.90554 0.965183 0.102902 6.43465e-10 4.10121e-10 -4.62881e-10 10.2786 0.731801 0.0259123 6.4345e-10 4.10123e-10 -4.62877e-10 2.22167 -0.733487 -0.20892 -2.82319e-14 -5.6226e-13 7.11579e-14 -21.673 2.96732 5.47288 5.24177 -2.62784 -7.90281 -0.0114707 3.16015 -0.442489 8.37166e-11 7.24091e-10 8.89529e-10 1.51975e-10 1.24938e-09 1.53825e-09 8.37122e-11 7.24096e-10 8.8954e-10 -7.73091 5.47488 -0.417314 8.37171e-11 7.24093e-10 8.8953e-10 -2.90554 0.965183 -0.102902 8.37095e-11 7.24092e-10 8.89532e-10 -10.2786 0.731801 -0.0259123 8.37239e-11 7.24093e-10 8.89526e-10 -2.22167 -0.733487 0.20892 -2.03217e-16 0.0 -3.88251e-19 6.99193 -5.99217 3.33371 0.0661471 7.2611 0.249705 -0.162663 -6.25233 -3.62374 2.03217e-16 0.0 3.88251e-19 2.18321 -12.9133 0.897001 -0.191531 10.6976 -0.340289 -0.380936 -4.1556 -1.22553
163.607 81.4431 19.1433 -131.821 -81.8649 140.92 6.61857 0.768803 1.35237 2.00992 -7.74613 0.590286 0.0141084 -1.23079 0.54275 -2.02176 15.3955 -0.0983293 -0.0 0.0 0.0 -0.0 0.0 0.0 -5.83144e-14 -1.19563e-12 1.48837e-13 35.9996 27.4338 -4.24361 -10.416 -5.58489 16.9183 -0.0113042 -6.41965 -0.901807 1.33189e-09 8.65449e-10 -9.92409e-10 2.30828e-09 1.49646e-09 -1.71011e-09 1.3319e-09 8.65449e-10 -9.92412e-10 7.73091 5.47488 0.417314 1.33189e-09 8.65449e-10 -9.92407e-10 2.90554 0.965183 0.102902 1.3319e-09 8.65448e-10 -9.92407e-10 10.2786 0.731801 0.0259123 1.33189e-09 8.65451e-10 -9.92402e-10 2.22167 -0.733487 -0.20892 -5.84754e-14 -1.19563e-12 1.48573e-13 -45.1628 5.93551 11.2885 9.98766 -5.22666 -16.2885 0.0366251 6.74045 -0.94907 1.37791e-10 1.51952e-09 1.88439e-09 2.53523e-10 2.62182e-09 3.25858e-09 1.37787e-10 1.51953e-09 1.8844e-09 -7.73091 5.47488 -0.417314 1.37793e-10 1.51952e-09 1.88439e-09 -2.90554 0.965183 -0.102902 1.37784e-10 1.51952e-09 1.88439e-09 -10.2786 0.731801 -0.0259123 1.37798e-10 1.51952e-09 1.88439e-09 -2.22167 -0.733487 0.20892 -2.03217e-16 0.0 -3.88251e-19 13.8487 -7.38178 6.92538 0.0969245 11.8395 0.520089 -1.13037 -14.6467 -7.67974 2.03217e-16 0.0 3.88251e-19 4.77967 -23.7545 2.11445 -0.221313 23.0918 -0.808018 -1.46718 -12.0079 -2.57722
162.498 81.695 19.0412 -129.101 -81.6254 138.144 9.46021 1.12808 1.99473 2.91837 -11.2786 0.865716 0.0112367 -1.80157 0.786192 -2.92644 22.4675 -0.156137 -0.0 0.0 0.0 -0.0 0.0 0.0 -8.72406e-14 -1.6868e-12 2.13765e-13 54.1839 39.9204 -7.09364 -14.124 -7.75421 24.8263 -0.0846611 -9.3483 -1.32275 1.90302e-09 1.2302e-09 -1.3902e-09 3.29801e-09 2.12708e-09 -2.39528e-09 1.90302e-09 1.2302e-09 -1.3902e-09 7.73091 5.47488 0.417314 1.90302e-09 1.2302e-09 -1.39019e-09 2.90554 0.965183 0.102902 1.90302e-09 1.2302e-09 -1.39019e-09 10.2786 0.731801 0.0259123 1.90301e-09 1.2302e-09 -1.39019e-09 2.22167 -0.733487 -0.20892 -8.7382e-14 -1.6868e-12 2.13474e-13 -66.7099 8.57617 16.5873 13.6049 -7.28489 -23.888 0.113732 9.47817 -1.3438 2.23797e-10 2.1721e-09 2.66705e-09 4.08678e-10 3.74783e-09 4.61207e-09 2.23793e-10 2.17211e-09 2.66707e-09 -7.73091 5.47488 -0.417314 2.238e-10 2.1721e-09 2.66706e-09 -2.90554 0.965183 -0.102902 2.2379e-10 2.1721e-09 2.66705e-09 -10.2786 0.731801 -0.0259123 2.23803e-10 2.1721e-09 2.66705e-09 -2.22167 -0.733487 0.20892 -2.03217e-16 0.0 -3.88251e-19 20.1296 -8.45093 10.1968 0.0864766 15.786 0.764292 -3.09411 -21.8151 -11.802 2.03217e-16 0.0 3.88251e-19 7.58123 -33.346 3.08492 -0.0450066 33.446 -1.32339 -2.66702 -19.1734 -3.67815
161.45 81.9509 18.904 -127.024 -81.129 136.105 11.5096 1.36489 2.54512 3.53926 -13.7438 1.08473 -0.0502793 -2.2239 0.935905 -3.53446 27.4537 -0.226189 -0.0 0.0 0.0 -0.0 0.0 0.0 -1.12831e-13 -1.82245e-12 2.47388e-13 67.6958 48.6669 -9.70288 -16.4005 -9.06469 30.5227 -0.160468 -11.3436 -1.61562 2.18085e-09 1.36852e-09 -1.45864e-09 3.77906e-09 2.36587e-09 -2.51191e-09 2.18085e-09 1.36852e-09 -1.45864e-09 7.73091 5.47488 0.417314 2.18085e-09 1.36852e-09 -1.45863e-09 2.90554 0.965183 0.102902 2.18086e-09 1.36852e-09 -1.45863e-09 10.2786 0.731801 0.0259123 2.18085e-09 1.36852e-09 -1.45863e-09 2.22167 -0.733487 -0.20892 -1.12946e-13 -1.82246e-12 2.47089e-13 -82.2948 10.683 20.4552 15.8493 -8.54802 -29.3552 0.12709 10.1126 -1.43632 3.89631e-10 2.46754e-09 2.91922e-09 6.97848e-10 4.25774e-09 5.0484e-09 3.89627e-10 2.46755e-09 2.91924e-09 -7.73091 5.47488 -0.417314 3.89635e-10 2.46754e-09 2.91922e-09 -2.90554 0.965183 -0.102902 3.89624e-10 2.46754e-09 2.91922e-09 -10.2786 0.731801 -0.0259123 3.89635e-10 2.46754e-09 2.91922e-09 -2.22167 -0.733487 0.20892 -2.03217e-16 0.0 -3.88251e-19 24.6136 -8.80915 12.6157 0.0604782 18.1537 0.92052 -5.20372 -26.2739 -15.3034 2.03217e-16 0.0 3.88251e-19 9.68362 -39.8683 2.82688 0.185823 38.7076 -1.72403 -3.34413 -24.6673 -3.92175
160.461 82.2347 18.8099 -125.738 -80.6783 134.934 12.4562 1.46426 2.97387 3.72122 -14.7204 1.21549 -0.206528 -2.44249 0.947067 -3.74229 29.5222 -0.317809 -0.0 0.0 0.0 -0.0 0.0 0.0 -1.49282e-13 -1.07667e-12 2.26185e-13 72.6537 52.3986 -10.4143 -17.3295 -9.61985 33.0322 -0.192266 -12.0176 -1.71609 2.05784e-09 1.15201e-09 -9.4328e-10 3.56408e-09 1.99028e-09 -1.61987e-09 2.05783e-09 1.15202e-09 -9.43283e-10 7.73091 5.47488 0.417314 2.05784e-09 1.15202e-09 -9.4327e-10 2.90554 0.965183 0.102902 2.05784e-09 1.15202e-09 -9.43269e-10 10.2786 0.731801 0.0259123 2.05783e-09 1.15202e-09 -9.43263e-10 2.22167 -0.733487 -0.20892 -1.4935e-13 -1.07668e-12 2.25914e-13 -89.187 12.522 22.2336 16.8025 -9.11834 -31.8346 0.0035421 7.08835 -0.997901 8.81498e-10 2.15196e-09 2.32095e-09 1.54439e-09 3.71215e-09 4.01344e-09 8.81494e-10 2.15197e-09 2.32096e-09 -7.73091 5.47488 -0.417314 8.81504e-10 2.15196e-09 2.32095e-09 -2.90554 0.965183 -0.102902 8.81491e-10 2.15196e-09 2.32095e-09 -10.2786 0.731801 -0.0259123 8.81501e-10 2.15196e-09 2.32095e-09 -2.22167 -0.733487 0.20892 -2.03217e-16 0.0 -3.88251e-19 26.4362 -8.19395 13.8642 0.0529347 18.204 0.943455 -6.34655 -27.1346 -17.4824 2.03217e-16 0.0 3.88251e-19 10.1216 -42.0226 0.334805 0.205237 36.4179 -1.74105 -2.67282 -27.6541 -2.37135
159.449 82.5727 18.7521 -124.5 -80.28 133.752 12.6176 1.46397 3.31533 3.57966 -14.6339 1.27991 -0.431387 -2.51537 0.859528 -3.67135 29.5065 -0.420282 -0.0 0.0 0.0 -0.0 0.0 0.0 -1.92752e-13 2.8043e-13 1.66345e-13 70.8239 52.6007 -9.16277 -17.4435 -9.77172 33.2396 -0.18238 -11.749 -1.67637 1.64804e-09 6.83873e-10 -1.6754e-11 2.85115e-09 1.179e-09 -1.74716e-11 1.64803e-09 6.83877e-10 -1.67642e-11 7.73091 5.47488 0.417314 1.64803e-09 6.83879e-10 -1.67459e-11 2.90554 0.965183 0.102902 1.64804e-09 6.8388e-10 -1.67468e-11 10.2786 0.731801 0.0259123 1.64803e-09 6.83881e-10 -1.67381e-11 2.22167 -0.733487 -0.20892 -1.92757e-13 2.8043e-13 1.66125e-13 -89.7244 14.2303 22.4999 16.9659 -9.30962 -32.1536 -0.0923335 1.48204 -0.205462 1.59604e-09 1.40523e-09 1.12035e-09 2.77144e-09 2.42182e-09 1.93646e-09 1.59604e-09 1.40524e-09 1.12036e-09 -7.73091 5.47488 -0.417314 1.59605e-09 1.40523e-09 1.12034e-09 -2.90554 0.965183 -0.102902 1.59604e-09 1.40523e-09 1.12035e-09 -10.2786 0.731801 -0.0259123 1.59604e-09 1.40523e-09 1.12035e-09 -2.22167 -0.733487 0.20892 -2.03217e-16 0.0 -3.88251e-19 26.3256 -6.90002 14.2754 0.0619999 16.6042 0.869757 -6.4295 -25.5381 -18.5194 2.03217e-16 0.0 3.88251e-19 9.56408 -40.9478 -3.64281 0.0917695 28.7549 -1.51152 -0.914799 -28.8158 0.519717
158.356 82.8738 18.6892 -123.335 -79.7759 132.631 12.4691 1.37004 3.61004 3.30811 -14.1139 1.31655 -0.671971 -2.52362 0.743865 -3.49062 28.6532 -0.506962 -0.0 0.0 0.0 -0.0 0.0 0.0 -2.14179e-13 1.26811e-12 1.08649e-13 66.4392 51.3184 -7.21954 -17.236 -9.76631 32.4995 -0.157819 -11.1292 -1.58473 1.10791e-09 1.75559e-10 8.77888e-10 1.91328e-09 2.98745e-10 1.5287e-09 1.10791e-09 1.75565e-10 8.77872e-10 7.73091 5.47488 0.417314 1.10791e-09 1.75567e-10 8.77894e-10 2.90554 0.965183 0.102902 1.10792e-09 1.7557e-10 8.77892e-10 10.2786 0.731801 0.0259123 1.10791e-09 1.7557e-10 8.77902e-10 2.22167 -0.733487 -0.20892 -2.14136e-13 1.26811e-12 1.08478e-13 -87.4504 15.4635 22.1502 16.765 -9.30285 -31.463 -0.0323641 -4.01352 0.565098 2.05682e-09 6.63679e-10 -1.4878e-10 3.5591e-09 1.14234e-09 -2.57628e-10 2.05682e-09 6.63684e-10 -1.48767e-10 -7.73091 5.47488 -0.417314 2.05683e-09 6.63673e-10 -1.48791e-10 -2.90554 0.965183 -0.102902 2.05681e-09 6.63683e-10 -1.48777e-10 -10.2786 0.731801 -0.0259123 2.05682e-09 6.63684e-10 -1.4878e-10 -2.22167 -0.733487 0.20892 -2.03217e-16 0.0 -3.88251e-19 25.4312 -5.38683 14.2847 0.0685327 14.517 0.75408 -5.95849 -23.1285 -18.849 2.03217e-16 0.0 3.88251e-19 9.12574 -38.5703 -7.82374 0.0197779 19.6256 -1.30015 1.00726 -29.5078 3.33072
